# xmcd
#
# Track frame offsets: 
#        150
#        23599
#        44687
#        62330
#        81295
#        94557
#        113722
#        131929
#        153172
#        180699
#
# Disc length: 2652 seconds
#
# Revision: 0
# Processed by: cddbd v1.5.2PL0 Copyright (c) Steve Scherf et al.
# Submitted via: ExactAudioCopy v0.99pb4
#
DISCID=780a5a0a
DTITLE=Blessed Event Feat. De-Soul - Butterfly Kisses
DYEAR=1997
DGENRE=R&B
TTITLE0=Butterfly Kisses
TTITLE1=No Special Occasion
TTITLE2=Honey Lets Make Up
TTITLE3=Mother Nature
TTITLE4=All I Need Is Time
TTITLE5=Jonny Poison Eyes
TTITLE6=Take Me Back
TTITLE7=This Girl
TTITLE8=Your Love Is
TTITLE9=Digital Love Code
EXTD=
EXTT0=
EXTT1=
EXTT2=
EXTT3=
EXTT4=
EXTT5=
EXTT6=
EXTT7=
EXTT8=
EXTT9=
PLAYORDER=
